<svg width="30" height="24" viewBox="0 0 30 24" fill="none" xmlns="http://www.w3.org/2000/svg">
<g clip-path="url(#clip0_10201_62)">
<path d="M24 1.5H5.625C5.00391 1.5 4.5 2.00391 4.5 2.625L4.50047 13.5C4.50047 15.9844 6.51609 18 9.00047 18H18.0005C20.4844 18 22.5 15.9844 22.5 13.5H24C27.3108 13.5 30 10.8103 30 7.5C30 4.18969 27.3094 1.5 24 1.5ZM24 10.5H22.5V4.5H24C25.6523 4.5 27 5.84766 27 7.5C27 9.15234 25.6547 10.5 24 10.5ZM26.25 19.5H0.75C0.335812 19.5 0 19.8375 0 20.25C0 21.4922 1.00734 22.5 2.25 22.5H24.75C25.9927 22.5 27 21.4927 27 20.25C27 19.8375 26.6625 19.5 26.25 19.5Z" fill="white"/>
</g>
<defs>
<clipPath id="clip0_10201_62">
<rect width="30" height="24" fill="white"/>
</clipPath>
</defs>
</svg>
